<svg width="107" height="32" viewBox="0 0 107 32" fill="none" xmlns="http://www.w3.org/2000/svg">
<path fill-rule="evenodd" clip-rule="evenodd" d="M73.5507 24.7273V7.41126H69.9625V24.7273H73.5507ZM69.1423 2.66667C69.1423 4.19048 70.2359 5.2987 71.7396 5.2987C73.2773 5.2987 74.3709 4.19048 74.3709 2.66667C74.3709 1.10823 73.2773 0 71.7396 0C70.2359 0 69.1423 1.10823 69.1423 2.66667ZM27.0695 13.9567C27.0695 12.2943 26.8644 11.0476 26.4202 10.0433C25.2582 7.54976 22.5928 7.06491 20.5082 7.06491C16.4416 7.06491 13.9812 8.86577 13.9812 11.6017C13.9812 12.7099 14.4254 13.5411 14.4254 13.5411H17.5352C17.5352 13.5411 17.296 13.0562 17.296 12.3637C17.296 10.7705 18.6287 10.1818 20.4057 10.1818C21.67 10.1818 23.4813 10.5974 23.4813 12.1904C23.4813 13.645 22.7978 14.3377 19.5855 14.7532C16.1682 15.2034 13.4002 16.277 13.4002 19.948C13.4002 23.0303 15.3481 25.0736 19.1071 25.0736C21.1916 25.0736 22.8661 23.9654 23.6179 22.8918H23.7205V24.7272H27.0695V13.9567ZM23.5497 18.1125C23.5497 20.1212 22.251 21.9914 19.5855 21.9914C17.706 21.9914 16.8858 21.1255 16.8858 19.8442C16.8858 18.6667 17.8086 17.9047 20.0639 17.5931C21.4308 17.4199 22.832 17.1429 23.4471 16.3116H23.5497V18.1125ZM37.9606 7.41128L35.056 18.4589C34.817 19.2893 34.578 20.4998 34.5435 20.6748L34.5434 20.6754C34.5058 20.5611 34.4165 20.1539 34.3098 19.6664L34.3097 19.6663C34.2223 19.2671 34.123 18.8141 34.0307 18.4243L31.4336 7.41128H27.5378L32.4246 24.7273H36.4912L38.9858 15.4459L39.7718 12.3983C39.7938 12.5542 39.9713 13.2546 40.177 14.0663L40.1772 14.0671L40.1772 14.0672C40.2913 14.5172 40.414 15.0014 40.5237 15.4459L43.0182 24.7273H47.0506L51.9374 7.41128H48.0417L45.4787 18.4589L44.9661 20.7099C44.9661 20.7099 44.6585 19.3247 44.4193 18.4589L41.5488 7.41128H37.9606ZM60.2455 10.5281C58.6394 10.5281 56.8283 11.29 56.8283 15.065V24.7272H53.2743V7.41123H56.7941V9.35062H56.8625C57.6826 8.03461 59.1862 7.06491 61.0999 7.06491C64.7905 7.06491 67.1144 9.69695 67.1144 14.4069V24.7272H63.492V14.961C63.492 11.3593 61.8859 10.5281 60.2455 10.5281ZM83.4771 10.5281C81.8709 10.5281 80.0598 11.29 80.0598 15.065V24.7272H76.5058V7.41123H80.0256V9.35062H80.094C80.9141 8.03461 82.4177 7.06491 84.3314 7.06491C88.0221 7.06491 90.3459 9.69695 90.3459 14.4069V24.7272H86.7235V14.961C86.7235 11.3593 85.1174 10.5281 83.4771 10.5281ZM99.3452 20.0173C103.617 20.0173 105.838 17.1429 105.838 13.8182C105.838 12.6753 105.633 11.6363 105.121 10.7359L107 9.2121L105.086 6.71859L103.138 8.31167C102.045 7.48049 100.746 7.06491 99.2428 7.06491C95.347 7.06491 92.6132 9.90474 92.6132 13.8182C92.6132 15.5498 93.1599 17.1429 94.4243 18.2856C93.6725 18.7706 92.7157 19.8442 92.7157 21.2987C92.7157 24.4502 95.8596 24.8658 98.7302 25.0043C101.293 25.1429 102.763 25.4545 102.763 26.909C102.763 28.1558 101.737 28.8831 99.0378 28.8831C96.6797 28.8831 95.347 28.1212 95.347 26.8744C95.347 26.1472 95.5862 25.697 95.5862 25.697H92.4764C92.4764 25.697 92.1348 26.4242 92.1348 27.394C92.1348 30.8571 95.1762 32 99.0378 32C103.173 32 106.146 30.4069 106.146 26.9437C106.146 22.8571 103.207 22.1645 100.131 21.9567C99.8409 21.9347 99.5605 21.9161 99.2922 21.8983L99.292 21.8983C97.4439 21.7756 96.1672 21.6908 96.1672 20.8139C96.1672 20.329 96.4747 19.948 96.7823 19.671C97.5683 19.9135 98.3884 20.0173 99.3452 20.0173ZM99.2086 10.2857C101.225 10.2857 102.421 11.5324 102.421 13.7489C102.421 15.342 101.396 16.8658 99.2086 16.8658C96.9873 16.8658 96.0646 15.1688 96.0646 13.7143C96.0646 11.7402 97.2265 10.2857 99.2086 10.2857ZM27.1155 0.110578H0V13.4805L27.1155 0.110578Z" fill="#8794A7"/>
</svg>
