<svg width="140" height="34" viewBox="0 0 140 34" fill="none" xmlns="http://www.w3.org/2000/svg">
<path fill-rule="evenodd" clip-rule="evenodd" d="M18.0638 21.6284L20.6774 23.1525C19.1293 24.7019 17.0609 25.5567 14.8389 25.5567C13.5925 25.5567 12.3879 25.2475 11.2697 24.7184C10.7531 24.4532 10.1083 24.6737 9.85036 25.2475C9.59243 25.7772 9.85036 26.4396 10.3662 26.7042C11.7856 27.3666 13.2906 27.7198 14.8822 27.7198C16.4821 27.7194 18.0603 27.3487 19.493 26.6365C20.9199 25.9272 22.1639 24.8985 23.1285 23.6304C23.1963 23.5605 23.2576 23.4811 23.311 23.3936C23.6121 22.8646 23.4399 22.2021 22.9234 21.8929L18.5371 19.3334C18.341 19.2237 18.1157 19.1774 17.8922 19.2011C17.6687 19.2247 17.4581 19.317 17.2892 19.4653C16.6444 20.0391 15.7842 20.393 14.9239 20.393C12.9455 20.393 11.354 18.759 11.354 16.7292C11.354 14.6981 12.9455 13.0655 14.9239 13.0655C15.7842 13.0655 16.6444 13.374 17.2892 13.9924C17.6769 14.3449 18.1927 14.3896 18.6228 14.0803L26.9667 8.03296C27.2246 7.8124 27.3968 7.45921 27.3968 7.06206C27.3536 6.70888 27.1381 6.35569 26.8377 6.17983L17.3757 0.662223C15.8699 -0.220741 13.9347 -0.220741 12.4296 0.662223L2.45178 6.57698C1.70178 7.04369 1.08309 7.69382 0.654111 8.46601C0.225129 9.23821 8.30068e-06 10.107 0 10.9903V23.4669C0 24.0846 0.473357 24.5264 1.07494 24.5264C1.67727 24.5264 2.15062 24.0406 2.15062 23.4229V10.9464C2.15062 9.93151 2.70971 9.00458 3.56996 8.4748L13.5046 2.60401C13.9245 2.34433 14.4085 2.20678 14.9023 2.20678C15.3961 2.20678 15.8801 2.34433 16.3 2.60401L24.257 7.23865L17.978 11.8293C17.0745 11.2556 15.9989 10.9024 14.8807 10.9024C11.7416 10.9024 9.16084 13.5506 9.16084 16.7732C9.16084 19.9951 11.7416 22.6433 14.8807 22.6433C16.0205 22.6384 17.1315 22.2842 18.0638 21.6284ZM9.0822 24.1886C9.32194 23.785 9.26242 23.2325 8.90365 22.8645C7.35535 21.2752 6.4951 19.1121 6.4951 16.8172C6.4951 12.0939 10.2365 8.20955 14.8822 8.20955C15.9769 8.21227 17.0596 8.43764 18.0645 8.87195C18.2367 8.91665 18.4089 9.00458 18.5811 9.09251C19.0969 9.35777 19.7418 9.13721 20.0004 8.60743C20.2583 8.07765 20.0429 7.41525 19.5271 7.15072C19.3124 7.0181 19.0969 6.92943 18.8822 6.8415C17.6344 6.31172 16.2583 6.04647 14.8822 6.04647C9.07584 6.04647 4.34521 10.9024 4.34521 16.8619C4.34521 19.2846 5.11191 21.6133 6.54202 23.5014L3.27026 25.8659C3.01233 26.0864 2.84014 26.4396 2.84014 26.8368C2.84014 27.19 3.05557 27.5432 3.35599 27.7197L12.3871 33.06C13.1471 33.494 14.007 33.7224 14.8822 33.7224H14.8829C15.7578 33.7222 16.6175 33.4939 17.3772 33.06L27.355 27.19C28.1052 26.7233 28.724 26.073 29.153 25.3007C29.582 24.5283 29.807 23.6594 29.8068 22.7759V10.9903C29.8068 10.3726 29.3335 9.88754 28.7311 9.88754C28.1295 9.88754 27.6562 10.3726 27.6562 10.9903V22.7759C27.6562 23.7915 27.0971 24.7184 26.2369 25.2474L16.259 31.1622C15.8389 31.422 15.3548 31.5597 14.8609 31.5597C14.367 31.5597 13.8829 31.422 13.4628 31.1622L5.89351 26.7042L8.73218 24.6297C8.8874 24.5139 9.00559 24.3601 9.0822 24.1886ZM43.5312 11.035C46.2834 11.035 47.8325 13.1974 47.8325 13.1974L46.4124 14.6541C46.4124 14.6541 45.4232 13.0655 43.5312 13.0655C41.7675 13.0655 40.2192 14.6541 40.2192 16.6853C40.2192 18.715 41.7675 20.3043 43.5312 20.3043C45.4232 20.3043 46.4989 18.5824 46.4989 18.5824L47.9175 20.0391C47.9175 20.0391 46.2402 22.2901 43.488 22.2901C40.5203 22.2901 37.9828 19.6859 37.9828 16.6406C37.9828 13.6392 40.5203 11.035 43.5312 11.035ZM52.5616 22.1135H50.3678V6.22379H52.5616V22.1135ZM60.7333 11.035C63.7009 11.035 66.2384 13.6392 66.2384 16.6845C66.2384 19.7306 63.7009 22.334 60.7333 22.334C57.7656 22.334 55.2281 19.7306 55.2281 16.6845C55.2281 13.6392 57.7656 11.035 60.7333 11.035ZM60.7333 13.0647C58.9703 13.0647 57.4212 14.6548 57.4212 16.6845C57.4212 18.715 58.9703 20.3043 60.7333 20.3043C62.4963 20.3043 64.0453 18.715 64.0453 16.6845C64.0453 14.6548 62.4963 13.0647 60.7333 13.0647ZM76.2192 21.0107C76.2192 21.0107 75.0146 22.3787 73.0361 22.3787C70.4986 22.3787 68.7349 20.5688 68.7349 17.6115V11.2556H70.9287V17.6115C70.9287 19.2008 72.0469 20.3483 73.4663 20.3483C75.1435 20.3483 76.2192 19.2008 76.2192 17.1703V11.2556H78.4123V22.1582H76.2192V21.0107ZM89.5934 12.4925V6.26922H91.7872V22.1589H89.5934V20.9242C89.5934 20.9242 88.2605 22.3802 86.1531 22.3802C83.4002 22.3802 80.9491 19.8647 80.9491 16.7307C80.9491 13.5528 83.4002 11.0812 86.1531 11.0812C88.2605 11.0372 89.5934 12.4932 89.5934 12.4932V12.4925ZM89.5934 16.686C89.5934 14.6555 88.0451 13.0662 86.411 13.0662C84.7338 13.0662 83.1855 14.6555 83.1855 16.686C83.1855 18.7157 84.7338 20.3058 86.411 20.3058C88.0451 20.3058 89.5934 18.7157 89.5934 16.686ZM100.431 13.9484C100.431 13.9484 99.6577 13.0208 98.453 13.0208C97.4638 13.0208 96.9047 13.5953 96.9047 14.169C96.9047 15.0235 97.8652 15.3228 98.9775 15.6694C100.507 16.1461 102.324 16.7123 102.324 18.9355C102.324 20.7454 100.776 22.3348 98.3673 22.3348C95.6151 22.3348 94.2815 20.393 94.2815 20.393L95.7008 18.9355C95.7008 18.9355 96.69 20.3043 98.3673 20.3043C99.5712 20.3043 100.13 19.7306 100.13 18.9355C100.13 18.0811 99.17 17.7817 98.0579 17.4351C96.5283 16.9584 94.7116 16.3922 94.7116 14.169C94.7116 12.5797 96.2599 10.9903 98.453 10.9903C100.776 10.9903 101.894 12.447 101.894 12.447L100.431 13.9477V13.9484ZM106.925 12.4031C106.925 12.4031 108.13 11.035 110.108 11.035C112.646 11.035 114.409 12.8449 114.409 15.8016V22.1582H112.216V15.8016C112.216 14.213 111.097 13.0655 109.678 13.0655C108.001 13.0655 106.925 14.213 106.925 16.2434V22.1582H104.732V11.2549H106.925V12.4031ZM123.83 22.1135V20.966C123.83 20.966 122.625 22.3348 120.647 22.3348C118.453 22.3348 116.905 20.7454 116.905 19.1561C116.905 17.3462 118.109 16.1108 120.002 15.7576L123.873 15.0959C123.873 13.9477 122.969 13.0655 121.679 13.0655C119.787 13.0655 118.927 14.5222 118.927 14.5222L117.507 13.0655C117.507 13.0655 118.927 11.035 121.722 11.035C124.389 11.035 126.152 12.8449 126.152 15.0959V22.1135H123.83ZM123.83 17.1256V16.9051L120.389 17.4788C119.615 17.6115 119.056 18.1412 119.056 18.9355C119.056 19.5979 119.701 20.3043 120.948 20.3043C122.711 20.3043 123.83 19.2008 123.83 17.1256ZM131.355 20.8781V26.8808H129.162V11.2556H131.355V12.4903C131.355 12.4903 132.689 11.0343 134.796 11.0343C137.548 11.0343 140 13.5498 140 16.6838C140 19.8617 137.548 22.3333 134.796 22.3333C132.689 22.3773 131.355 20.8773 131.355 20.8773V20.8781ZM131.355 16.6845C131.355 18.715 132.903 20.3043 134.537 20.3043C136.172 20.3043 137.72 18.715 137.72 16.6845C137.72 14.6548 136.172 13.0647 134.537 13.0647C132.903 13.0647 131.355 14.6548 131.355 16.6845Z" fill="#8794A7"/>
</svg>
