<svg width="120" height="26" viewBox="0 0 120 26" fill="none" xmlns="http://www.w3.org/2000/svg">
<path fill-rule="evenodd" clip-rule="evenodd" d="M66.976 0.303921C66.6612 0.100919 66.2926 -0.0048132 65.917 0.000168255C65.6695 0.000519421 65.4246 0.0494483 65.1964 0.144124C64.9683 0.238799 64.7613 0.377341 64.5875 0.551734C64.4137 0.726127 64.2766 0.932909 64.1841 1.16011C64.0916 1.38732 64.0454 1.63044 64.0484 1.8754C64.0485 2.24735 64.1602 2.61089 64.3695 2.91979C64.5787 3.22869 64.876 3.469 65.2235 3.61017C65.5711 3.75133 65.9532 3.78697 66.3212 3.71256C66.6893 3.63814 67.0267 3.45703 67.2905 3.19226C67.5543 2.92748 67.7327 2.591 67.8029 2.22561C67.8731 1.86021 67.8319 1.48239 67.6847 1.14021C67.5374 0.798024 67.2907 0.506923 66.976 0.303921ZM67.3712 5.79889H64.4768V18.8223H67.3712V5.79889ZM18.1217 11.0674C17.5017 15.549 13.852 18.9785 9.10314 18.9785C3.89209 18.9785 0 14.8374 0 9.70562C0 4.57384 3.89209 0.432693 9.10314 0.432693C10.4498 0.425729 11.7802 0.72385 12.9926 1.30425C14.2051 1.88465 15.2673 2.73195 16.0982 3.78133L14.0577 5.79888C13.5275 4.98243 12.7946 4.31434 11.9291 3.85849C11.0636 3.40265 10.0945 3.17431 9.11441 3.19532C5.53516 3.19532 3.00995 6.0584 3.00995 9.70562C3.00995 13.3528 5.54643 16.2159 9.11441 16.2159C12.2427 16.2159 14.5678 14.1035 15.1005 11.0618L18.1217 11.0674ZM26.5461 5.637C30.441 5.637 33.2818 8.50287 33.2818 12.3036C33.2818 16.1043 30.441 18.9729 26.5461 18.9729C22.6511 18.9729 19.8131 16.1126 19.8131 12.3092C19.8131 8.50566 22.654 5.637 26.5461 5.637ZM26.5461 16.2103C28.8007 16.2103 30.3339 14.5695 30.3339 12.3036C30.3339 10.0377 28.8092 8.39683 26.5461 8.39683C24.2829 8.39683 22.7667 10.0432 22.7667 12.3092C22.7667 14.5751 24.2858 16.2159 26.5461 16.2159V16.2103ZM38.358 5.79887H35.4635V18.8223H38.358V11.6339C38.358 9.70562 39.3556 8.35221 41.2495 8.35221C43.1434 8.35221 44.1186 9.34006 44.1186 11.6339V18.8223H47.0045V11.0088C47.0045 7.54296 45.2234 5.63702 41.9598 5.63702C41.2715 5.61541 40.5876 5.75296 39.9623 6.03876C39.3371 6.32455 38.7878 6.75072 38.358 7.28344V5.79887ZM62.4121 13.0542C62.2679 14.6959 61.4982 16.2217 60.2593 17.3219C59.0204 18.4222 57.405 19.0145 55.7412 18.9785C51.8745 18.9785 49.0082 16.1377 49.0082 12.3091C49.0082 8.48054 51.8773 5.63699 55.7412 5.63699C56.6383 5.61745 57.5298 5.7833 58.3586 6.12395C59.1874 6.46461 59.9354 6.97258 60.5548 7.61547L58.4242 9.51861C58.0882 9.14392 57.6747 8.84528 57.2117 8.64304C56.7487 8.44079 56.2472 8.33968 55.7412 8.34659C53.4865 8.34659 51.9534 9.95951 51.9534 12.3036C51.9534 14.6476 53.4865 16.2689 55.7412 16.2689C56.6637 16.299 57.5638 15.9832 58.2614 15.3846C58.9589 14.786 59.4026 13.9487 59.5036 13.0403L62.4121 13.0542ZM83.1107 14.9546C82.2652 16.9778 80.205 18.5154 77.6432 18.8921C76.7693 19.0264 75.8773 18.989 75.0181 18.7819C74.1589 18.5749 73.3493 18.2024 72.6355 17.6855C71.9217 17.1687 71.3177 16.5178 70.858 15.7698C70.3983 15.0219 70.0918 14.1916 69.9562 13.3264C69.8205 12.4612 69.8583 11.578 70.0674 10.7272C70.2765 9.87649 70.6528 9.07485 71.1747 8.36808C71.6967 7.66132 72.3542 7.06328 73.1096 6.60809C73.865 6.15291 74.7035 5.8495 75.5773 5.7152C79.2722 5.15709 82.5217 7.69089 83.0741 11.3465C83.1249 11.6742 83.1484 12.0056 83.1445 12.3371L73.1282 13.8189C73.4267 14.6283 74.0001 15.3098 74.7503 15.7466C75.5005 16.1834 76.3807 16.3483 77.2401 16.2132C78.3675 16.0485 79.244 15.6188 79.7485 14.9491L83.1107 14.9546ZM72.8154 11.3493L79.9767 10.2917C79.6267 9.58659 79.0585 9.01049 78.355 8.64713C77.6515 8.28378 76.8492 8.15213 76.0649 8.27132C75.2666 8.38445 74.524 8.74205 73.9413 9.29401C73.3586 9.84597 72.9649 10.5646 72.8154 11.3493ZM114.506 18.8921C117.068 18.5153 119.128 16.9778 119.973 14.9546L116.603 14.9463C116.098 15.616 115.222 16.0457 114.094 16.2104C113.235 16.3455 112.355 16.1805 111.605 15.7438C110.855 15.307 110.281 14.6255 109.983 13.8161L119.999 12.3343C120.005 12.0039 119.985 11.6735 119.937 11.3465C119.387 7.69089 116.135 5.15709 112.44 5.7152C110.675 5.98644 109.092 6.94071 108.038 8.36808C106.983 9.79545 106.545 11.579 106.819 13.3264C107.093 15.0737 108.057 16.6418 109.498 17.6855C110.94 18.7293 112.741 19.1633 114.506 18.8921ZM116.84 10.2917L109.678 11.3493C109.828 10.5648 110.222 9.84636 110.805 9.29447C111.387 8.74258 112.13 8.38484 112.928 8.27132C113.712 8.15212 114.514 8.28378 115.218 8.64713C115.921 9.01048 116.489 9.58659 116.84 10.2917ZM85.8017 5.79887H88.6962V7.15228C89.3275 6.31512 90.2491 5.6426 92.0782 5.6426V8.40243H91.8161C89.9729 8.40243 88.6849 9.70561 88.6849 11.6339V18.8223H85.8017V5.79887ZM95.292 14.7369C94.7846 15.0101 94.3447 15.3914 94.004 15.8531L96.2107 17.734C96.5002 17.2659 96.9062 16.8792 97.3897 16.611C97.8733 16.3427 98.4184 16.2019 98.9727 16.202C100.92 16.202 102.183 17.5302 102.183 19.4836C102.183 21.437 100.92 22.7904 98.9727 22.7904C97.5269 22.7904 96.6307 22.1262 96.1375 21.1803L93.9025 23.036C94.9904 24.5596 96.7772 25.5 98.9755 25.5C102.422 25.5 105.131 23.1308 105.131 19.4836C105.137 18.5509 104.912 17.631 104.476 16.8041C104.04 15.9772 103.407 15.2684 102.631 14.7397C103.196 14.2794 103.648 13.6982 103.954 13.0399C104.259 12.3816 104.41 11.6634 104.395 10.939V5.79886H101.501V6.4072C100.711 5.87853 99.7705 5.61358 98.8177 5.65097C95.7147 5.65097 93.5305 7.99501 93.5305 10.939C93.5242 11.6613 93.6787 12.3762 93.9832 13.0326C94.2876 13.6891 94.7345 14.271 95.292 14.7369ZM101.512 10.9306C101.512 12.4654 100.421 13.4812 98.9755 13.4812C98.6345 13.4957 98.2942 13.4394 97.9764 13.316C97.6587 13.1926 97.3705 13.0048 97.1303 12.7647C96.8901 12.5245 96.7033 12.2373 96.5819 11.9215C96.4604 11.6056 96.4069 11.2681 96.4249 10.9306C96.4249 9.36795 97.5184 8.3522 98.9755 8.3522C100.433 8.3522 101.512 9.39586 101.512 10.9306Z" fill="#8794A7"/>
</svg>
