<svg width="52" height="52" viewBox="0 0 52 52" fill="none" xmlns="http://www.w3.org/2000/svg">
<path d="M26.0016 2.96454C19.6428 2.96454 13.8841 5.54379 9.71475 9.71633C5.54381 13.8793 2.96614 19.6412 2.96614 26.0032C2.96614 32.3604 5.54381 38.1183 9.71475 42.2829C13.8841 46.4498 19.6428 49.0339 26.0016 49.0339C32.362 49.0339 38.1238 46.4498 42.2868 42.2829C46.4562 38.1183 49.0283 32.3604 49.0283 26.0032C49.0283 19.6412 46.4562 13.8793 42.2868 9.71633C38.1238 5.54379 32.362 2.96454 26.0016 2.96454ZM26.0016 0.173324C40.2633 0.173324 51.8267 11.7383 51.8267 26.0032C51.8267 40.2633 40.2633 51.8267 26.0016 51.8267C11.7415 51.8267 0.17334 40.2633 0.17334 26.0032C0.17334 11.7383 11.7415 0.173324 26.0016 0.173324" fill="#8994A5"/>
<path d="M13.7868 25.7928C13.7868 24.2876 12.7881 23.4326 11.3742 23.4326H10.5089V28.1545H11.3496C12.6642 28.1545 13.7868 27.44 13.7868 25.7928ZM29.1789 27.4916L22.8042 32.5112L16.9781 27.9243C16.1374 29.9439 14.1059 31.3466 11.7664 31.3466H6.78015V20.2389H11.7664C14.3806 20.2389 16.2644 21.9013 16.9765 23.6724L22.8042 19.0902L24.9627 20.7891L19.6216 24.987L20.6481 25.7904L25.9876 21.5948L28.1493 23.2889L22.809 27.4916L23.8339 28.2966L29.1789 24.0931V20.2389H33.0538V28.1045H36.9191V31.3601H29.1789V27.4916V27.4916ZM41.8275 28.1061H45.6912V31.3601H37.9487V20.2389H41.8275V28.1061V28.1061Z" fill="#8794A7"/>
</svg>
