<svg width="145" height="29" viewBox="0 0 145 29" fill="none" xmlns="http://www.w3.org/2000/svg">
<path fill-rule="evenodd" clip-rule="evenodd" d="M17.3063 11.6359C19.0156 13.3536 20.4131 16.1659 19.6132 17.8367C17.4737 22.3052 1.51147 30.1414 0.155385 28.7855C-1.20062 27.4294 6.64165 11.4612 11.1102 9.32173C12.7812 8.5216 15.594 9.91966 17.3116 11.6293C17.3116 11.6293 17.3099 11.6315 17.3063 11.6359Z" fill="#8794A7"/>
<path fill-rule="evenodd" clip-rule="evenodd" d="M25.7628 9.74949C25.7629 9.74943 25.763 9.7494 25.763 9.7494C25.485 8.7216 24.7766 7.68325 23.7191 7.56025C21.7798 7.33465 18.7224 10.7636 18.9406 11.5775C19.1586 12.3914 23.4777 13.8259 25.0911 12.6664C25.9228 12.0687 26.0397 10.7776 25.7666 9.74848L25.7628 9.74949ZM19.7601 0.249313C21.201 0.639177 22.6564 1.63228 22.8288 3.11472C23.145 5.83383 18.3375 10.1202 17.1964 9.81446C16.0552 9.50868 14.044 3.4532 15.6698 1.19104C16.5078 0.025107 18.3179 -0.138949 19.7608 0.2441C19.7608 0.2441 19.7606 0.245854 19.7601 0.249313Z" fill="#8794A7"/>
<path fill-rule="evenodd" clip-rule="evenodd" d="M62.7123 16.3456L61.2845 16.1292C59.924 15.9284 59.1365 15.488 59.1365 14.6856C59.1365 13.7656 60.1615 13.1942 61.6772 13.1942C62.749 13.1942 63.6215 13.5959 64.4567 14.0213L64.6228 14.1057C64.8157 14.2035 65.0226 14.2531 65.2377 14.2531C65.7334 14.2531 66.1899 13.9838 66.4291 13.5504L66.5457 13.3396C66.7306 13.0044 66.77 12.6181 66.6562 12.2522C66.543 11.8874 66.2928 11.5926 65.9522 11.4218C64.7354 10.8124 63.4157 10.2655 61.6772 10.2655C58.0438 10.2655 55.7031 12.0199 55.7031 14.844C55.7031 17.1621 57.369 18.6153 60.5215 19.0465L61.9619 19.2339C63.4839 19.4475 64.2239 19.8979 64.2239 20.6111C64.2239 21.27 63.8677 22.1459 61.51 22.1459C60.2104 22.1459 58.8906 21.816 57.8193 21.1373C57.6055 21.0019 57.3588 20.9304 57.1061 20.9304C56.6358 20.9304 56.1893 21.18 55.9409 21.582L55.8608 21.7119C55.6615 22.0343 55.6016 22.43 55.6963 22.7974C55.7909 23.164 56.0232 23.4671 56.3503 23.6511C58.2183 24.7015 60.3744 25.0743 61.51 25.0743C65.2978 25.0743 67.6428 23.4139 67.6428 20.4928C67.6428 18.1552 65.9837 16.8153 62.7123 16.3456Z" fill="#8794A7"/>
<path fill-rule="evenodd" clip-rule="evenodd" d="M106.757 21.4477C106.483 21.1425 106.091 20.9674 105.68 20.9674C105.403 20.9674 105.132 21.0464 104.897 21.1959C104.126 21.6851 103.282 21.9437 102.454 21.9437C100.178 21.9437 98.5257 20.1464 98.5257 17.6698C98.5257 15.1933 100.178 13.3958 102.454 13.3958C103.327 13.3958 104.109 13.6332 104.844 14.1218C105.412 14.4999 106.23 14.4031 106.697 13.9039L106.818 13.7748C107.139 13.4329 107.291 12.9692 107.236 12.5032C107.183 12.0454 106.934 11.6379 106.553 11.3853C105.434 10.6433 104.046 10.251 102.54 10.251C98.172 10.251 95.1211 13.3018 95.1211 17.6698C95.1211 22.038 98.172 25.0888 102.54 25.0888C104.052 25.0888 105.447 24.6886 106.575 23.9315C106.951 23.6785 107.2 23.2742 107.256 22.8222C107.313 22.3664 107.17 21.9092 106.864 21.5676L106.757 21.4477Z" fill="#8794A7"/>
<path fill-rule="evenodd" clip-rule="evenodd" d="M36.0626 5.23157C34.9256 5.23157 34.0352 6.13351 34.0352 7.28491C34.0352 8.44076 34.9068 9.31237 36.0626 9.31237C37.214 9.31237 38.1158 8.42187 38.1158 7.28491C38.1158 6.13351 37.214 5.23157 36.0626 5.23157Z" fill="#8794A7"/>
<path fill-rule="evenodd" clip-rule="evenodd" d="M36.6765 10.3712H35.4804C34.8944 10.3712 34.4194 10.8462 34.4194 11.4321V23.6669C34.4194 24.2531 34.8946 24.7283 35.4808 24.7283H36.6761C37.2623 24.7283 37.7375 24.2531 37.7375 23.6669V11.4321C37.7375 10.8462 37.2625 10.3712 36.6765 10.3712Z" fill="#8794A7"/>
<path fill-rule="evenodd" clip-rule="evenodd" d="M75.9419 21.8801C74.5998 21.8749 73.0399 20.823 73.0399 18.9813V13.4628H75.9519C76.5381 13.4628 77.0133 12.9876 77.0133 12.4014V11.4326C77.0133 10.8464 76.5381 10.3712 75.9519 10.3712H73.0399V7.18639C73.0399 6.60019 72.5647 6.125 71.9785 6.125H70.7167C70.1305 6.125 69.6553 6.60019 69.6553 7.18639V18.7837C69.6553 22.1222 72.1887 25.0743 75.697 25.0743H75.6982C76.0483 25.0743 76.3782 24.9371 76.6272 24.6882C76.8761 24.4392 77.0133 24.1093 77.0133 23.7592L77.0133 22.9415C77.0133 22.3522 76.5312 21.8824 75.9419 21.8801Z" fill="#8794A7"/>
<path fill-rule="evenodd" clip-rule="evenodd" d="M46.9601 10.251C42.714 10.251 40.3462 13.6469 40.3462 16.5531V23.6669C40.3462 24.2531 40.8214 24.7283 41.4076 24.7283H42.6173C43.2035 24.7283 43.6787 24.2531 43.6787 23.6669V17.0871C43.6787 14.8841 45.0135 13.4248 46.9601 13.4248C48.9066 13.4248 50.2414 14.8841 50.2414 17.0871V23.6669C50.2414 24.2531 50.7166 24.7283 51.3028 24.7283H52.5125C53.0987 24.7283 53.5739 24.2531 53.5739 23.6669V16.5531C53.5739 13.6469 51.2062 10.251 46.9601 10.251Z" fill="#8794A7"/>
<path fill-rule="evenodd" clip-rule="evenodd" d="M134.297 10.3984C133.837 10.2979 132.683 10.251 132.085 10.251C132.032 10.251 131.979 10.253 131.927 10.253C128.639 10.253 125.604 12.9332 125.604 16.6274C125.603 16.6304 125.603 16.6339 125.603 16.6366V16.7062V23.6669C125.603 24.2531 126.078 24.7283 126.664 24.7283H127.874C128.46 24.7283 128.935 24.2531 128.935 23.6669V16.749C128.935 14.7378 130.371 13.4269 132.13 13.4269C132.452 13.4319 132.798 13.4681 133.137 13.5351C133.229 13.5532 133.323 13.5624 133.416 13.5624C134.087 13.5624 134.669 13.0989 134.826 12.4461C134.912 12.0877 134.976 11.8206 135.036 11.5769C135.096 11.3332 135.055 11.0568 134.915 10.8334C134.775 10.6093 134.555 10.4548 134.297 10.3984Z" fill="#8794A7"/>
<path fill-rule="evenodd" clip-rule="evenodd" d="M143.17 13.4628C143.756 13.4628 144.231 12.9876 144.231 12.4014V11.4326C144.231 10.8464 143.756 10.3712 143.17 10.3712H140.258V7.18639C140.258 6.60019 139.782 6.125 139.196 6.125H137.934C137.348 6.125 136.873 6.60019 136.873 7.18639V18.7837C136.873 22.1222 139.406 25.0743 142.915 25.0743H142.916C143.266 25.0743 143.596 24.9371 143.845 24.6882C144.094 24.4392 144.231 24.1093 144.231 23.7592V22.9415C144.231 22.3522 143.749 21.8824 143.16 21.8801C141.818 21.8749 140.258 20.823 140.258 18.9813V13.4628H143.17V13.4628Z" fill="#8794A7"/>
<path fill-rule="evenodd" clip-rule="evenodd" d="M120.083 11.3894C120.081 11.3881 120.079 11.3866 120.077 11.3853C118.958 10.6433 117.571 10.251 116.065 10.251C116.038 10.251 116.013 10.2525 115.987 10.2528C115.961 10.2525 115.935 10.251 115.909 10.251C114.403 10.251 113.015 10.6433 111.896 11.3853C111.894 11.3866 111.893 11.3881 111.891 11.3894C109.876 12.6572 108.646 14.8975 108.646 17.6698C108.646 20.5741 109.995 22.8946 112.183 24.1247C113.203 24.7268 114.414 25.0858 115.719 25.0867C118.103 25.0884 119.543 23.7377 119.995 23.1481V23.6564C119.995 24.2426 120.471 24.7178 121.057 24.7178H122.266C122.853 24.7178 123.328 24.2426 123.328 23.6564V17.6698C123.328 14.8975 122.098 12.6572 120.083 11.3894ZM117.32 21.7211C116.932 21.8494 116.538 21.9236 116.145 21.94C116.117 21.941 116.088 21.9417 116.059 21.9421C116.035 21.9426 116.011 21.9435 115.987 21.9436C115.963 21.9435 115.939 21.9426 115.914 21.9421C115.886 21.9417 115.857 21.941 115.828 21.94C115.436 21.9236 115.041 21.8494 114.653 21.7211C113.089 21.1687 112.05 19.6333 112.05 17.6698C112.05 15.3513 113.498 13.6281 115.551 13.4177C115.561 13.4166 115.572 13.4158 115.583 13.4148C115.629 13.4104 115.676 13.4072 115.723 13.4043C115.75 13.4028 115.776 13.4013 115.803 13.4002C115.848 13.3983 115.894 13.3972 115.939 13.3968C115.955 13.3966 115.971 13.396 115.987 13.396C116.003 13.396 116.018 13.3966 116.034 13.3968C116.08 13.3972 116.125 13.3983 116.171 13.4002C116.197 13.4013 116.224 13.4028 116.25 13.4043C116.297 13.4072 116.344 13.4104 116.39 13.4148C116.401 13.4158 116.412 13.4166 116.423 13.4177C118.475 13.6281 119.923 15.3513 119.923 17.6698C119.923 19.6333 118.884 21.1687 117.32 21.7211Z" fill="#8794A7"/>
<path fill-rule="evenodd" clip-rule="evenodd" d="M89.887 11.3894C89.8851 11.3881 89.8834 11.3866 89.8815 11.3853C88.7624 10.6433 87.375 10.251 85.8688 10.251C85.8426 10.251 85.817 10.2525 85.7909 10.2528C85.7647 10.2525 85.7391 10.251 85.7129 10.251C84.2068 10.251 82.8194 10.6433 81.7003 11.3853C81.6984 11.3866 81.6967 11.3881 81.6948 11.3894C79.68 12.6572 78.4497 14.8975 78.4497 17.6698C78.4497 20.5741 79.7995 22.8946 81.9873 24.1247C83.0073 24.7268 84.2183 25.0858 85.5235 25.0867C87.9074 25.0884 89.3468 23.7377 89.7995 23.1481V23.6564C89.7995 24.2426 90.2747 24.7178 90.8609 24.7178H92.0707C92.6568 24.7178 93.132 24.2426 93.132 23.6564V17.6698C93.132 14.8975 91.9018 12.6572 89.887 11.3894ZM87.1241 21.7211C86.7365 21.8494 86.3418 21.9236 85.9495 21.94C85.9208 21.941 85.892 21.9417 85.8631 21.9421C85.839 21.9426 85.8149 21.9435 85.7909 21.9436C85.7668 21.9435 85.7427 21.9426 85.7187 21.9421C85.6898 21.9417 85.661 21.941 85.6323 21.94C85.2399 21.9236 84.8453 21.8494 84.4577 21.7211C82.8932 21.1687 81.8543 19.6333 81.8543 17.6698C81.8543 15.3513 83.3023 13.6281 85.3547 13.4177C85.3655 13.4166 85.3764 13.4158 85.3872 13.4148C85.4336 13.4104 85.4804 13.4072 85.5273 13.4043C85.5538 13.4028 85.5803 13.4013 85.607 13.4002C85.6522 13.3983 85.6978 13.3972 85.7436 13.3968C85.7594 13.3966 85.775 13.396 85.7909 13.396C85.8067 13.396 85.8224 13.3966 85.8382 13.3968C85.884 13.3972 85.9295 13.3983 85.9748 13.4002C86.0014 13.4013 86.0279 13.4028 86.0544 13.4043C86.1014 13.4072 86.1482 13.4104 86.1945 13.4148C86.2053 13.4158 86.2162 13.4166 86.227 13.4177C88.2794 13.6281 89.7274 15.3513 89.7274 17.6698C89.7274 19.6333 88.6885 21.1687 87.1241 21.7211Z" fill="#8794A7"/>
</svg>
