<?xml version="1.0" encoding="UTF-8"?><svg id="Layer_1" xmlns="http://www.w3.org/2000/svg" viewBox="0 0 64 64"><defs><style>.cls-1{fill:#1b3129;fill-rule:evenodd;}</style></defs><path class="cls-1" d="m64,0H0v64h64V0Zm-21.76,27.21h0c2.51,1.1,3.99,3.1,3.99,6.32,0,5.82-3.47,9.2-10.5,9.2h-6l-7.41,8.24v-8.2h-8.09l8.09-7.8v-1.33s0-6.42,0-6.42v-12.99h13.49c6.94,0,9.78,2.65,9.78,7.41,0,3.09-1.47,4.48-3.35,5.58Zm-6.67-6.76h-5.82v4.48h5.82c1.8,0,2.44-.89,2.44-2.24,0-1.26-.6-2.24-2.44-2.24Zm-5.82,16.04h6.11c1.92,0,2.79-1.18,2.79-2.81s-.92-2.73-2.75-2.73h-6.15v5.54Z"/></svg>