<svg width="44" height="44" viewBox="0 0 44 44" fill="none" xmlns="http://www.w3.org/2000/svg">
<path fill-rule="evenodd" clip-rule="evenodd" d="M44 0H0V44H44V0ZM29.0392 18.7054L29.036 18.707C30.7626 19.4622 31.7786 20.8348 31.7778 23.047C31.7778 27.0491 29.3905 29.3729 24.5604 29.3729H20.4337L15.3384 35.0371V29.3966H9.77776L15.3392 24.0371L15.3409 23.1208V18.7054V9.77779H24.6167C29.3913 9.77779 31.3405 11.5981 31.3405 14.8721C31.3405 16.9974 30.3269 17.9494 29.0392 18.7054ZM24.4503 14.0604H20.4466V17.1384H24.4503C25.6858 17.1384 26.1246 16.5235 26.1246 15.5986C26.1246 14.7319 25.7139 14.0604 24.4503 14.0604ZM20.4466 25.0903H24.644C25.9615 25.0903 26.5643 24.2769 26.5643 23.1577C26.5643 22.0098 25.9333 21.2825 24.6722 21.2825H20.4466V25.0903Z" fill="white"/>
</svg>
