<svg width="169" height="23" viewBox="0 0 169 23" fill="none" xmlns="http://www.w3.org/2000/svg">
<path d="M44.1929 11.8667C44.1929 7.93333 41.2912 5.03333 37.3889 5.03333C35.7546 5.03333 34.3204 5.59999 33.2197 6.56666L32.6194 5.39999H30.2847V23H33.8201V17.6333C34.8207 18.3333 36.0548 18.7333 37.3889 18.7333C41.2912 18.7333 44.1929 15.8 44.1929 11.8667ZM33.5533 11.8667C33.5533 9.83333 35.0542 8.29999 37.0887 8.29999C39.1232 8.29999 40.6241 9.79999 40.6241 11.8667C40.6241 13.9333 39.1232 15.4333 37.0887 15.4333C35.0542 15.4 33.5533 13.9 33.5533 11.8667Z" fill="#8794A7"/>
<path d="M59.1684 11.8667C59.1684 7.93333 56.1667 5.03333 52.1643 5.03333C48.1619 5.03333 45.1602 7.93333 45.1602 11.8667C45.1602 15.7667 48.1619 18.7 52.1643 18.7C56.1667 18.7 59.1684 15.7667 59.1684 11.8667ZM48.6956 11.8667C48.6956 9.76666 50.1298 8.29999 52.1643 8.29999C54.1988 8.29999 55.633 9.76666 55.633 11.8667C55.633 13.9667 54.1988 15.4333 52.1643 15.4333C50.1298 15.4333 48.6956 13.9667 48.6956 11.8667Z" fill="#8794A7"/>
<path d="M64.2716 5.3667H60.7695V18.3334H64.2716V5.3667Z" fill="#8794A7"/>
<path d="M79.0132 18.3333V10.4666C79.0132 7.19998 77.1788 5.06665 74.2104 5.06665C72.4427 5.06665 70.9084 5.79998 69.9078 6.96664L69.2408 5.36665H66.8394V18.3333H70.3414V11.5333C70.3414 9.43331 71.4421 8.16665 73.2431 8.16665C74.744 8.16665 75.5111 9.09998 75.5111 11.0666V18.3333H79.0132Z" fill="#8794A7"/>
<path d="M79.8472 7.43333V8.2H82.1819V13.7C82.1819 16.5667 83.9496 18.3333 86.7846 18.3333H89.2861V15.2H87.6851C86.4177 15.2 85.684 14.4667 85.684 13.2333V8.16667H89.2194V5.33333H85.6506V2H84.9835L79.8472 7.43333Z" fill="#8794A7"/>
<path d="M96.7905 18.3333H100.293V11.5333C100.293 9.43328 101.46 8.16661 103.194 8.16661C104.762 8.16661 105.462 9.13328 105.462 11.0666V18.3333H108.964V10.4666C108.964 7.16661 107.13 5.06662 104.195 5.06662C102.661 5.06662 101.26 5.63329 100.293 6.56662V0.699951H96.7905V18.3333Z" fill="#8794A7"/>
<path d="M123.573 14.1H119.904C119.371 15.0333 118.37 15.6 117.169 15.6C115.468 15.6 114.301 14.6333 114.001 12.8667H123.807C123.84 12.5333 123.873 12.1667 123.873 11.8333C123.873 8.09999 121.138 5.03333 117.169 5.03333C113.334 5.03333 110.432 7.96666 110.432 11.8667C110.432 15.7667 113.334 18.7 117.169 18.7C120.171 18.7 122.639 16.9 123.573 14.1ZM117.136 7.99999C118.704 7.99999 119.838 8.86665 120.338 10.4333H114.068C114.468 8.93332 115.602 7.99999 117.136 7.99999Z" fill="#8794A7"/>
<path d="M135.814 17.1667L136.114 18.3333H138.849V5.36667H136.247L135.88 6.6C134.746 5.6 133.279 5 131.611 5C127.709 5 124.807 7.93333 124.807 11.8333C124.807 15.7667 127.709 18.7 131.611 18.7C133.245 18.7 134.713 18.1333 135.814 17.1667ZM128.376 11.8333C128.376 9.8 129.877 8.26666 131.911 8.26666C133.946 8.26666 135.447 9.76667 135.447 11.8333C135.447 13.9 133.946 15.4 131.911 15.4C129.877 15.4 128.376 13.8667 128.376 11.8333Z" fill="#8794A7"/>
<path d="M144.485 0.699951H140.983V18.3333H144.485V0.699951Z" fill="#8794A7"/>
<path d="M147.821 13.7C147.821 16.5667 149.589 18.3333 152.424 18.3333H154.925V15.2H153.324C152.057 15.2 151.323 14.4667 151.323 13.2333V8.16667H154.859V5.33333H151.29V2H150.623L145.486 7.43333V8.2H147.821V13.7Z" fill="#8794A7"/>
<path d="M156.826 18.3333H160.328V11.5333C160.328 9.43328 161.496 8.16661 163.23 8.16661C164.798 8.16661 165.498 9.13328 165.498 11.0666V18.3333H169V10.4666C169 7.16661 167.166 5.06662 164.231 5.06662C162.696 5.06662 161.295 5.63329 160.328 6.56662V0.699951H156.826V18.3333Z" fill="#8794A7"/>
<path d="M62.5038 3.86662C63.517 3.86662 64.3383 3.04581 64.3383 2.03328C64.3383 1.02076 63.517 0.199951 62.5038 0.199951C61.4907 0.199951 60.6694 1.02076 60.6694 2.03328C60.6694 3.04581 61.4907 3.86662 62.5038 3.86662Z" fill="#8794A7"/>
<path d="M22.8802 13.9333C16.3764 14.1 10.5729 17.2 6.8374 21.9667C8.27158 22.6 9.90588 22.9667 11.5735 22.9667C17.1435 23 21.7462 19.1334 22.8802 13.9333Z" fill="#8794A7"/>
<path d="M23.047 9.86667C22.2465 4.3 17.4437 0 11.6069 0C9.73911 0 7.9714 0.433337 6.40381 1.23334C10.1394 6.36667 16.1763 9.76667 23.047 9.86667Z" fill="#8794A7"/>
<path d="M13.4746 11.9C9.33885 10.1333 5.73672 7.26663 3.10183 3.66663C1.16735 5.73329 0 8.46663 0 11.5C0 14.7 1.33412 17.6 3.43536 19.7C6.07025 16.3 9.50562 13.6 13.4746 11.9Z" fill="#8794A7"/>
</svg>
