<svg width="160" height="30" viewBox="0 0 160 30" fill="none" xmlns="http://www.w3.org/2000/svg">
<g clip-path="url(#clip0_133_706)">
<path d="M43.0385 8.30821C41.4248 8.30821 39.8772 8.94924 38.7362 10.0903C37.5951 11.2313 36.9541 12.7789 36.9541 14.3926C36.9541 16.0063 37.5951 17.5539 38.7362 18.6949C39.8772 19.8359 41.4248 20.477 43.0385 20.477C43.6155 20.4826 44.1904 20.4079 44.7468 20.255L47.0571 22.9754L49.1078 21.0941L47.2641 18.9041C48.1783 18.0681 48.8164 16.9735 49.0932 15.7659C49.37 14.5583 49.2726 13.295 48.8138 12.1442C48.355 10.9934 47.5567 10.0096 46.525 9.32362C45.4933 8.6377 44.2772 8.2822 43.0385 8.30445V8.30821ZM43.0385 17.7527C42.6019 17.753 42.1697 17.6654 41.7676 17.4953C41.3655 17.3253 41.0016 17.0761 40.6977 16.7627C40.3937 16.4493 40.1558 16.078 39.9982 15.6708C39.8405 15.2637 39.7663 14.829 39.7799 14.3926C39.7799 13.9647 39.8642 13.5409 40.028 13.1456C40.1917 12.7503 40.4318 12.391 40.7343 12.0885C41.0369 11.7859 41.3961 11.5458 41.7915 11.3821C42.1868 11.2183 42.6106 11.134 43.0385 11.134C43.4664 11.134 43.8901 11.2183 44.2855 11.3821C44.6808 11.5458 45.04 11.7859 45.3426 12.0885C45.6452 12.391 45.8852 12.7503 46.049 13.1456C46.2127 13.5409 46.297 13.9647 46.297 14.3926C46.3106 14.829 46.2364 15.2637 46.0788 15.6708C45.9211 16.078 45.6832 16.4493 45.3793 16.7627C45.0753 17.0761 44.7115 17.3253 44.3094 17.4953C43.9073 17.6654 43.4751 17.753 43.0385 17.7527Z" fill="#8794A7"/>
<path d="M61.0393 14.8403C61.0393 16.6314 60.0384 17.7527 58.5032 17.7527C56.968 17.7527 55.9859 16.6238 55.9859 14.8403V8.53015H53.0547V14.7876C53.0547 18.4262 55.1581 20.4769 58.4994 20.4769C61.8407 20.4769 63.9667 18.4375 63.9667 14.7876V8.53015H61.0355L61.0393 14.8403Z" fill="#8794A7"/>
<path d="M73.9382 8.3082C72.7404 8.33265 71.5765 8.71017 70.5924 9.39341C69.6083 10.0767 68.8478 11.0352 68.4063 12.1489C67.9648 13.2626 67.8619 14.4819 68.1105 15.6539C68.3591 16.8258 68.9481 17.8983 69.8038 18.7369C70.6594 19.5754 71.7436 20.1427 72.9203 20.3675C74.0971 20.5924 75.314 20.4649 76.4186 20.001C77.5231 19.537 78.4661 18.7573 79.1294 17.7596C79.7926 16.7619 80.1465 15.5906 80.1468 14.3926C80.1521 13.5815 79.9942 12.7777 79.6826 12.029C79.3709 11.2802 78.9117 10.6018 78.3325 10.0341C77.7532 9.46644 77.0656 9.02109 76.3107 8.72459C75.5558 8.42809 74.749 8.28648 73.9382 8.3082ZM73.9382 17.7527C73.5016 17.7529 73.0694 17.6654 72.6673 17.4953C72.2652 17.3253 71.9014 17.0761 71.5974 16.7627C71.2935 16.4493 71.0556 16.0779 70.898 15.6708C70.7403 15.2636 70.6661 14.829 70.6797 14.3926C70.6797 13.5284 71.023 12.6995 71.6341 12.0884C72.2452 11.4773 73.074 11.134 73.9382 11.134C74.8025 11.134 75.6313 11.4773 76.2424 12.0884C76.8535 12.6995 77.1968 13.5284 77.1968 14.3926C77.2104 14.829 77.1362 15.2636 76.9785 15.6708C76.8209 16.0779 76.583 16.4493 76.2791 16.7627C75.9751 17.0761 75.6113 17.3253 75.2091 17.4953C74.807 17.6654 74.3748 17.7529 73.9382 17.7527Z" fill="#8794A7"/>
<path d="M82.9951 11.134H86.7353V20.2549H89.6326V11.134H93.3728V8.53015H82.9951V11.134Z" fill="#8794A7"/>
<path d="M99.3818 8.53015L94.3999 20.2549H97.5004L98.2793 18.2381H103.242L104.036 20.2549H107.137L102.174 8.53015H99.3818ZM99.2238 15.8036L100.759 11.8527L102.294 15.8036H99.2238Z" fill="#8794A7"/>
<path d="M115.174 8.53015H110.448V20.2549H113.364V17.271H114.948C118.139 17.271 120.137 15.5627 120.137 12.8235C120.137 10.1858 118.241 8.53015 115.174 8.53015ZM115.14 14.7199H113.383V11.0813H115.14C116.416 11.0813 117.263 11.7736 117.263 12.8235C117.244 13.9786 116.397 14.7199 115.14 14.7199Z" fill="#8794A7"/>
<path d="M126.85 8.53015L121.868 20.2549H124.969L125.744 18.2381H130.711L131.505 20.2549H134.605L129.642 8.53015H126.85ZM126.692 15.8036L128.227 11.8527L129.762 15.8036H126.692Z" fill="#8794A7"/>
<path d="M135.647 11.134H139.388V20.2549H142.281V11.134H146.021V8.53015H135.647V11.134Z" fill="#8794A7"/>
<path d="M157.102 8.53015V13.2374H152.327V8.53015H149.415V20.2549H152.327V15.8562H157.102V20.2549H160V8.53015H157.102Z" fill="#8794A7"/>
<path d="M9.32792 1.73463V1.67443L3.20215 0L6.02045 3.34509L7.17562 4.66958L9.33921 7.2245V7.14924L9.41446 7.23578C11.1206 6.26404 13.1105 5.9129 15.0461 6.24201C16.9818 6.57113 18.7438 7.56021 20.0329 9.04121C21.3219 10.5222 22.0586 12.4038 22.1176 14.3664C22.1766 16.3289 21.5543 18.2514 20.3566 19.8072L23.743 23.6979C25.7357 21.4636 26.9353 18.6342 27.1559 15.6485C27.3765 12.6629 26.6056 9.68791 24.9629 7.18506C23.3202 4.68222 20.8975 2.79141 18.0706 1.80593C15.2437 0.82045 12.1705 0.795388 9.32792 1.73463Z" fill="#8794A7"/>
<path d="M21.1842 25.9329L18.4374 22.7609L17.8052 22.0083V22.0309C16.1016 23.0005 14.1153 23.3515 12.1825 23.0244C10.2498 22.6973 8.48955 21.7123 7.19982 20.2362C5.91008 18.7601 5.17017 16.8836 5.10539 14.9244C5.0406 12.9653 5.65492 11.044 6.84431 9.48589L3.45783 5.59143C1.46886 7.82054 0.269281 10.6426 0.0444399 13.6216C-0.180401 16.6006 0.582006 19.5707 2.21387 22.0731C3.84573 24.5755 6.25623 26.4709 9.07294 27.4664C11.8897 28.4619 14.9558 28.5022 17.7977 27.581L23.9197 29.2554L21.1353 25.963L21.1842 25.9329Z" fill="#8794A7"/>
<path d="M16.2736 14.8366C16.3041 14.318 16.1807 13.8019 15.9187 13.3533C15.6567 12.9047 15.2679 12.5436 14.8013 12.3154C14.3346 12.0872 13.8108 12.002 13.2959 12.0707C12.781 12.1394 12.2978 12.3589 11.9073 12.7014C11.5168 13.044 11.2362 13.4944 11.101 13.996C10.9658 14.4976 10.982 15.028 11.1474 15.5204C11.3129 16.0129 11.6202 16.4454 12.0309 16.7636C12.4415 17.0818 12.9371 17.2714 13.4552 17.3087C13.8031 17.3337 14.1525 17.2894 14.4831 17.1783C14.8136 17.0672 15.1189 16.8916 15.3811 16.6616C15.6433 16.4317 15.8572 16.1519 16.0104 15.8386C16.1636 15.5253 16.253 15.1847 16.2736 14.8366Z" fill="#8794A7"/>
</g>
<defs>
<clipPath id="clip0_133_706">
<rect width="160" height="29.2554" fill="white"/>
</clipPath>
</defs>
</svg>
