<svg width="118" height="37" viewBox="0 0 118 37" fill="none" xmlns="http://www.w3.org/2000/svg">
<g clip-path="url(#clip0_133_673)">
<path d="M17.7683 14.641C17.6875 14.6092 17.5984 14.6045 17.5146 14.6279C17.4309 14.6512 17.3571 14.7011 17.3047 14.7701C17.2522 14.8391 17.224 14.9232 17.2242 15.0097C17.2245 15.0962 17.2532 15.1801 17.3061 15.2488C17.7568 15.814 17.9786 16.5264 17.928 17.2459C17.8774 17.9654 17.5581 18.6401 17.0327 19.1376C15.3826 20.531 14.652 18.8658 12.5595 19.4489C11.8387 19.6636 11.1775 20.0408 10.6273 20.5511C10.0771 21.0614 9.65271 21.691 9.38724 22.391C9.12177 23.0909 9.02234 23.8423 9.09668 24.5867C9.17102 25.3311 9.41713 26.0484 9.81586 26.6828C11.9282 30.0676 16.1778 29.4104 18.0119 28.4172C23.8967 25.2252 22.0875 16.8004 17.7683 14.641Z" fill="#8794A7"/>
<path d="M26.3134 14.8235C26.5917 15.5005 27.1832 15.2781 27.1931 14.9075C27.1988 11.9139 26.3001 8.98748 24.6135 6.50743C23.4227 4.74808 21.8648 3.2642 20.0457 2.15665C18.2267 1.0491 16.1891 0.343828 14.0715 0.0887602C9.44417 -0.425129 3.36548 1.31913 0.994648 5.77613C0.802816 6.13461 0.636725 6.50613 0.497618 6.88791C-0.968622 10.9793 0.756073 15.6388 4.67267 17.4671C6.47157 18.3233 8.52607 18.4853 10.4382 17.9217C12.5307 17.2645 13.495 15.5795 14.9115 14.0576C16.5268 12.3529 18.838 11.2164 21.189 11.4338C23.1672 11.6117 25.5032 12.847 26.3134 14.8235Z" fill="#8794A7"/>
<path d="M35.7413 7.10028H39.7175V12.0415H44.156L43.6987 15.5004H39.9462V22.4626C39.9462 22.4626 40.0555 24.4391 41.4372 24.9332C41.4372 24.9332 43.4651 25.1556 44.0715 24.9332C44.6779 24.7109 44.9413 24.6318 44.9413 24.6318V28.0907C44.3157 28.3869 43.6429 28.5725 42.9532 28.6391C42.0266 28.7066 41.0964 28.7066 40.1698 28.6391C39.3597 28.5107 35.458 27.3495 35.458 22.9024V15.4954H33.2412V12.0366H35.4928V7.09534" fill="#8794A7"/>
<path d="M59.1073 12.0171V14.1764C58.7988 13.8116 58.4523 13.4803 58.0735 13.1881C56.3438 11.8441 53.5108 10.9547 50.8815 11.9578C48.0335 12.946 47.0792 15.5056 46.6865 16.4049C45.7311 19.1454 45.8428 22.1423 46.9997 24.805C47.2929 25.2991 49.6538 28.9853 53.7742 28.8074C56.8856 28.674 58.8041 26.4307 59.1471 26.0156L59.8479 28.3775H63.0736V11.9775L59.1073 12.0171ZM54.5993 24.7457C52.2831 24.7457 50.4043 22.6654 50.4043 20.096C50.4043 17.5266 52.2831 15.4414 54.5993 15.4414C56.9154 15.4414 58.7942 17.5266 58.7942 20.096C58.7942 22.6654 56.9154 24.7457 54.5993 24.7457Z" fill="#8794A7"/>
<path d="M65.5479 12.1105V28.3573H70.0211V18.2525C70.0211 18.2525 71.5122 16.3896 73.2419 15.7275C73.937 15.5363 74.6777 15.5941 75.3344 15.8906C75.3344 15.8906 76.4626 16.2118 76.4925 17.8671C76.5223 19.5224 76.4925 28.3375 76.4925 28.3375H80.9011V16.4687C80.9011 16.4687 80.6228 13.0098 78.0333 12.1105C75.4437 11.2112 73.7389 11.646 73.7389 11.646C73.7389 11.646 70.8412 11.9425 69.544 13.8301L69.1364 12.1105" fill="#8794A7"/>
<path d="M99.4062 11.9176L95.927 11.8929C95.5841 13.2221 95.6089 13.2271 95.3057 14.1955C94.5204 13.5384 94.3117 12.8713 92.2788 11.9423C89.9179 10.9146 86.9755 12.1005 86.5481 12.308C84.798 13.2017 83.4433 14.7087 82.7458 16.5377C81.6921 19.1269 81.5877 23.1985 84.3959 25.8618C86.6574 28.0063 90.2907 28.7574 92.9945 27.3837C93.8352 26.945 94.5683 26.3276 95.1417 25.5752L95.0522 29.1527C94.6 31.6233 93.4717 32.9278 90.6237 33.1798C87.7757 33.4318 85.882 30.9612 85.882 30.9612L82.7408 33.3033C83.5708 34.3751 84.6203 35.2593 85.8199 35.8973C87.0195 36.5353 88.3419 36.9127 89.6992 37.0043C93.3623 37.0043 98.8694 36.4213 99.4808 30.3287C99.5255 24.1077 99.4062 11.9176 99.4062 11.9176ZM90.8474 24.2707C88.3125 24.2707 86.4735 22.0818 86.4735 19.6606C86.453 19.0988 86.5498 18.539 86.7579 18.0164C86.966 17.4937 87.2808 17.0197 87.6825 16.6241C88.0841 16.2285 88.5639 15.92 89.0915 15.718C89.6192 15.516 90.1832 15.425 90.748 15.4506C93.9538 15.7026 94.8186 17.5951 94.9678 20.1547C94.933 22.655 93.3971 24.0929 90.8325 24.2609L90.8474 24.2707Z" fill="#8794A7"/>
<path d="M109.476 11.5425C104.535 11.5425 100.489 14.28 100.589 20.165C100.425 24.9185 103.69 28.6343 109.476 28.7825C113.626 28.6985 118 25.9018 118 20.165C118 14.6456 114.381 11.5425 109.476 11.5425ZM109.292 24.8839C106.807 24.8839 105.077 22.9074 105.077 20.1699C105.077 17.4325 106.812 15.4511 109.292 15.4511C111.772 15.4511 113.507 17.4276 113.507 20.1699C113.507 22.9123 111.767 24.874 109.292 24.874V24.8839Z" fill="#8794A7"/>
</g>
<defs>
<clipPath id="clip0_133_673">
<rect width="118" height="37" fill="white"/>
</clipPath>
</defs>
</svg>
