<svg width="80" height="57" viewBox="0 0 80 57" fill="none" xmlns="http://www.w3.org/2000/svg">
<path d="M38.2874 8.89733V33.6912H17.6965L38.2874 8.89733ZM38.2874 0C38.2874 2.72329 37.2027 5.33504 35.2719 7.26069C33.3412 9.18635 30.7225 10.2682 27.992 10.2682C25.2614 10.2682 22.6428 9.18635 20.712 7.26069C18.7812 5.33504 17.6965 2.72329 17.6965 0L38.2874 0ZM41.6796 33.6934C41.6796 30.9701 42.7643 28.3584 44.695 26.4327C46.6258 24.5071 49.2445 23.4252 51.975 23.4252C54.7055 23.4252 57.3242 24.5071 59.255 26.4327C61.1857 28.3584 62.2704 30.9701 62.2704 33.6934H41.6796V33.6934ZM41.6796 24.7961V0H62.2748L41.6796 24.7939V24.7961ZM53.1953 54.9064C54.2542 54.93 55.2795 54.5352 56.0478 53.8079L57.4619 55.3304C56.528 56.2882 55.2328 57 53.2195 57C49.7679 57 47.5366 54.7153 47.5366 51.6265C47.5226 50.9185 47.6517 50.215 47.9162 49.558C48.1808 48.9009 48.5753 48.3037 49.0763 47.802C49.5772 47.3003 50.1744 46.9044 50.8321 46.6378C51.4899 46.3713 52.1947 46.2397 52.9045 46.2507C56.3319 46.2507 58.2747 48.8518 58.1029 52.4591H50.0014C50.2877 53.9573 51.345 54.913 53.1887 54.913L53.1953 54.9064ZM55.6557 50.7389C55.4354 49.3395 54.5984 48.3092 52.9244 48.3092C51.3671 48.3092 50.2811 49.1879 50.0014 50.7389H55.6579H55.6557ZM0 54.7899L6.23365 48.4717H0.147581V46.4902H9.1258V48.5113L2.89215 54.8273H9.21391V56.8111H0V54.7899V54.7899ZM16.2119 54.9042C17.2708 54.9278 18.2962 54.533 19.0644 53.8058L20.4785 55.3282C19.5446 56.286 18.2494 56.9978 16.2361 56.9978C12.7845 56.9978 10.5532 54.7131 10.5532 51.6243C10.5392 50.9163 10.6683 50.2128 10.9328 49.5558C11.1974 48.8987 11.5919 48.3015 12.0929 47.7998C12.5938 47.2981 13.191 46.9022 13.8487 46.6356C14.5065 46.3691 15.2113 46.2375 15.9211 46.2485C19.3486 46.2485 21.2913 48.8496 21.1195 52.4569H13.0224C13.3087 53.9551 14.366 54.9108 16.2097 54.9108L16.2119 54.9042ZM18.6767 50.7367C18.4565 49.3373 17.6194 48.307 15.9454 48.307C14.3881 48.307 13.3021 49.1857 13.0224 50.7367H18.6789H18.6767ZM34.5869 51.6221C34.5869 48.3268 37.0605 46.2529 39.7852 46.2529C40.439 46.2442 41.0868 46.3784 41.6831 46.6459C42.2794 46.9135 42.8097 47.308 43.2369 47.8017V41.712H45.4396V56.7825H43.2369V55.3611C42.8179 55.8751 42.2883 56.2885 41.6874 56.5707C41.0865 56.8529 40.4296 56.9966 39.7654 56.9912C37.1222 56.9912 34.5891 54.9042 34.5891 51.6243L34.5869 51.6221ZM43.3602 51.6023C43.3429 50.9579 43.1355 50.333 42.7639 49.8056C42.3923 49.2782 41.8731 48.8718 41.2711 48.6372C40.6691 48.4026 40.0112 48.3503 39.3795 48.4867C38.7479 48.6231 38.1706 48.9422 37.7198 49.4041C37.2691 49.866 36.9649 50.4502 36.8453 51.0837C36.7257 51.7171 36.796 52.3717 37.0475 52.9655C37.299 53.5593 37.7204 54.0659 38.259 54.4221C38.7977 54.7782 39.4297 54.9681 40.076 54.9679C41.9703 54.9679 43.358 53.4608 43.358 51.6023H43.3602ZM59.5435 54.59L61.5391 53.5575C61.803 54.0266 62.1903 54.4149 62.6592 54.6805C63.1281 54.9461 63.6609 55.0789 64.2 55.0646C65.4467 55.0646 66.0943 54.4275 66.0943 53.7025C66.0943 52.8765 64.8895 52.6919 63.5788 52.4217C61.8167 52.0483 59.9818 51.4705 59.9818 49.3461C59.9818 47.7138 61.5391 46.2046 63.9908 46.2265C65.9225 46.2265 67.3609 46.9911 68.1759 48.2257L66.3256 49.2363C66.07 48.8587 65.722 48.5524 65.3146 48.3463C64.9072 48.1403 64.4538 48.0413 63.9974 48.0587C62.8123 48.0587 62.2088 48.6365 62.2088 49.2978C62.2088 50.0403 63.1647 50.2468 64.6626 50.5785C66.3675 50.952 68.297 51.5078 68.297 53.6542C68.297 55.0777 67.0503 56.9978 64.0987 56.978C61.94 56.978 60.4202 56.1103 59.5457 54.5834L59.5435 54.59ZM74.2818 52.1954L72.535 54.0957V56.7759H70.3323V41.7054H72.535V51.5759L77.2114 46.4572H79.8943L75.8413 50.8729L80 56.7781H77.5065L74.284 52.1954H74.2818ZM27.9303 46.2507C25.3091 46.2507 23.1174 47.9423 23.1174 50.7543V56.7847H25.3641V51.0333C25.3641 49.3417 26.3399 48.3268 28.0074 48.3268C29.6748 48.3268 30.503 49.3373 30.503 51.0333V56.7847H32.7366V50.7543C32.7366 47.9467 30.5339 46.2507 27.9237 46.2507" fill="#8794A7"/>
</svg>
